<mxfile host="app.diagrams.net" modified="2021-07-22T21:28:24.172Z" agent="5.0 (Windows NT 10.0; Win64; x64) AppleWebKit/537.36 (KHTML, like Gecko) Chrome/91.0.4472.164 Safari/537.36" etag="l6MtCXWBytpCpEhB_q5Q" version="14.9.1" type="github" pages="2">
  <diagram id="EXLHMDaifDddQzuxBUXZ" name="Impresos">
    <mxGraphModel dx="1185" dy="643" grid="0" gridSize="10" guides="1" tooltips="1" connect="1" arrows="1" fold="1" page="1" pageScale="1" pageWidth="827" pageHeight="1169" math="0" shadow="0">
      <root>
        <mxCell id="0" />
        <mxCell id="1" parent="0" />
        <mxCell id="V6-QGevS6LfhxT4h9i1H-1" value="" style="shape=cylinder3;whiteSpace=wrap;html=1;boundedLbl=1;backgroundOutline=1;size=15;" parent="1" vertex="1">
          <mxGeometry x="259.6" y="585" width="90" height="85" as="geometry" />
        </mxCell>
        <mxCell id="V6-QGevS6LfhxT4h9i1H-2" value="Modelo Impresos" style="text;html=1;strokeColor=none;fillColor=none;align=center;verticalAlign=middle;whiteSpace=wrap;rounded=0;" parent="1" vertex="1">
          <mxGeometry x="284" y="630" width="40" height="20" as="geometry" />
        </mxCell>
        <mxCell id="V6-QGevS6LfhxT4h9i1H-5" value="" style="group" parent="1" vertex="1" connectable="0">
          <mxGeometry x="206" y="446" width="203" height="90" as="geometry" />
        </mxCell>
        <mxCell id="V6-QGevS6LfhxT4h9i1H-6" value="&lt;span style=&quot;font-size: 15px&quot;&gt;Shell script&amp;nbsp;&lt;/span&gt;" style="shape=ext;double=1;rounded=0;whiteSpace=wrap;html=1;strokeColor=#6c8ebf;strokeWidth=3;fillColor=#dae8fc;" parent="V6-QGevS6LfhxT4h9i1H-5" vertex="1">
          <mxGeometry width="197.2" height="90" as="geometry" />
        </mxCell>
        <mxCell id="V6-QGevS6LfhxT4h9i1H-7" value="" style="html=1;verticalLabelPosition=bottom;align=center;labelBackgroundColor=#ffffff;verticalAlign=top;strokeWidth=2;strokeColor=#0080F0;shadow=0;dashed=0;shape=mxgraph.ios7.icons.clock;fillColor=none;" parent="V6-QGevS6LfhxT4h9i1H-5" vertex="1">
          <mxGeometry x="11.6" y="9" width="17.4" height="18" as="geometry" />
        </mxCell>
        <mxCell id="V6-QGevS6LfhxT4h9i1H-9" value="" style="endArrow=classic;startArrow=classic;html=1;exitX=0.5;exitY=0;exitDx=0;exitDy=0;exitPerimeter=0;" parent="1" source="V6-QGevS6LfhxT4h9i1H-1" target="V6-QGevS6LfhxT4h9i1H-6" edge="1">
          <mxGeometry width="50" height="50" relative="1" as="geometry">
            <mxPoint x="720" y="450" as="sourcePoint" />
            <mxPoint x="770" y="400" as="targetPoint" />
          </mxGeometry>
        </mxCell>
        <mxCell id="V6-QGevS6LfhxT4h9i1H-11" value="" style="endArrow=classic;html=1;entryX=0.542;entryY=1.057;entryDx=0;entryDy=0;entryPerimeter=0;" parent="1" source="V6-QGevS6LfhxT4h9i1H-6" target="yEa7dtfqmOPgqNK6kRTS-5" edge="1">
          <mxGeometry width="50" height="50" relative="1" as="geometry">
            <mxPoint x="670" y="470" as="sourcePoint" />
            <mxPoint x="720" y="420" as="targetPoint" />
          </mxGeometry>
        </mxCell>
        <mxCell id="yEa7dtfqmOPgqNK6kRTS-5" value="" style="shape=process;whiteSpace=wrap;html=1;backgroundOutline=1;strokeWidth=3;fillColor=none;strokeColor=#66B2FF;" vertex="1" parent="1">
          <mxGeometry x="229" y="313" width="141" height="83" as="geometry" />
        </mxCell>
        <mxCell id="yEa7dtfqmOPgqNK6kRTS-6" value="" style="outlineConnect=0;dashed=0;verticalLabelPosition=bottom;verticalAlign=top;align=center;html=1;shape=mxgraph.aws3.android;strokeColor=#d79b00;strokeWidth=3;fillColor=#66B2FF;" vertex="1" parent="1">
          <mxGeometry x="280" y="347" width="48" height="45" as="geometry" />
        </mxCell>
        <mxCell id="yEa7dtfqmOPgqNK6kRTS-8" value="Spring boot app" style="text;html=1;strokeColor=none;fillColor=none;align=center;verticalAlign=middle;whiteSpace=wrap;rounded=0;" vertex="1" parent="1">
          <mxGeometry x="263" y="317" width="73" height="27" as="geometry" />
        </mxCell>
        <mxCell id="yEa7dtfqmOPgqNK6kRTS-9" value="" style="endArrow=classic;html=1;exitX=1;exitY=0.5;exitDx=0;exitDy=0;" edge="1" parent="1" source="yEa7dtfqmOPgqNK6kRTS-5">
          <mxGeometry width="50" height="50" relative="1" as="geometry">
            <mxPoint x="351" y="550" as="sourcePoint" />
            <mxPoint x="548" y="354" as="targetPoint" />
          </mxGeometry>
        </mxCell>
        <mxCell id="yEa7dtfqmOPgqNK6kRTS-16" value="" style="strokeWidth=2;html=1;shape=mxgraph.flowchart.document2;whiteSpace=wrap;size=0.25;fillColor=none;" vertex="1" parent="1">
          <mxGeometry x="546" y="324.5" width="117" height="67.5" as="geometry" />
        </mxCell>
        <mxCell id="yEa7dtfqmOPgqNK6kRTS-17" value="Fichero generado" style="text;html=1;strokeColor=none;fillColor=none;align=center;verticalAlign=middle;whiteSpace=wrap;rounded=0;" vertex="1" parent="1">
          <mxGeometry x="557" y="333" width="100" height="26" as="geometry" />
        </mxCell>
      </root>
    </mxGraphModel>
  </diagram>
  <diagram id="xvRes7LxJYF53H5sxymf" name="Buscones">
    <mxGraphModel dx="1221" dy="632" grid="1" gridSize="10" guides="1" tooltips="1" connect="1" arrows="1" fold="1" page="1" pageScale="1" pageWidth="827" pageHeight="1169" math="0" shadow="0">
      <root>
        <mxCell id="7_Rk7xCm0eicdHYlJep_-0" />
        <mxCell id="7_Rk7xCm0eicdHYlJep_-1" parent="7_Rk7xCm0eicdHYlJep_-0" />
        <mxCell id="d79rhtWKYqdiNp4z9XPF-0" value="" style="shape=cylinder3;whiteSpace=wrap;html=1;boundedLbl=1;backgroundOutline=1;size=15;" vertex="1" parent="7_Rk7xCm0eicdHYlJep_-1">
          <mxGeometry x="150" y="440" width="90" height="85" as="geometry" />
        </mxCell>
        <mxCell id="d79rhtWKYqdiNp4z9XPF-1" value="Modelo Impresos" style="text;html=1;strokeColor=none;fillColor=none;align=center;verticalAlign=middle;whiteSpace=wrap;rounded=0;" vertex="1" parent="7_Rk7xCm0eicdHYlJep_-1">
          <mxGeometry x="175" y="485" width="40" height="20" as="geometry" />
        </mxCell>
        <mxCell id="d79rhtWKYqdiNp4z9XPF-2" value="" style="group" vertex="1" connectable="0" parent="7_Rk7xCm0eicdHYlJep_-1">
          <mxGeometry x="160" y="285" width="203" height="90" as="geometry" />
        </mxCell>
        <mxCell id="d79rhtWKYqdiNp4z9XPF-3" value="&lt;span style=&quot;font-size: 15px&quot;&gt;Batch&amp;nbsp;&lt;/span&gt;" style="shape=ext;double=1;rounded=0;whiteSpace=wrap;html=1;strokeColor=#6c8ebf;strokeWidth=3;fillColor=#dae8fc;" vertex="1" parent="d79rhtWKYqdiNp4z9XPF-2">
          <mxGeometry width="197.2" height="90" as="geometry" />
        </mxCell>
        <mxCell id="d79rhtWKYqdiNp4z9XPF-4" value="" style="html=1;verticalLabelPosition=bottom;align=center;labelBackgroundColor=#ffffff;verticalAlign=top;strokeWidth=2;strokeColor=#0080F0;shadow=0;dashed=0;shape=mxgraph.ios7.icons.clock;fillColor=none;" vertex="1" parent="d79rhtWKYqdiNp4z9XPF-2">
          <mxGeometry x="11.6" y="9" width="17.4" height="18" as="geometry" />
        </mxCell>
        <mxCell id="d79rhtWKYqdiNp4z9XPF-5" value="" style="endArrow=classic;startArrow=classic;html=1;exitX=0.5;exitY=0;exitDx=0;exitDy=0;exitPerimeter=0;" edge="1" parent="7_Rk7xCm0eicdHYlJep_-1" source="d79rhtWKYqdiNp4z9XPF-0" target="d79rhtWKYqdiNp4z9XPF-3">
          <mxGeometry width="50" height="50" relative="1" as="geometry">
            <mxPoint x="710" y="310" as="sourcePoint" />
            <mxPoint x="760" y="260" as="targetPoint" />
          </mxGeometry>
        </mxCell>
        <mxCell id="d79rhtWKYqdiNp4z9XPF-6" value="Fichero generado&amp;nbsp;&lt;br&gt;de forma diaria" style="shape=parallelogram;perimeter=parallelogramPerimeter;whiteSpace=wrap;html=1;fixedSize=1;" vertex="1" parent="7_Rk7xCm0eicdHYlJep_-1">
          <mxGeometry x="440" y="300" width="150" height="60" as="geometry" />
        </mxCell>
        <mxCell id="d79rhtWKYqdiNp4z9XPF-7" value="" style="endArrow=classic;html=1;" edge="1" parent="7_Rk7xCm0eicdHYlJep_-1" source="d79rhtWKYqdiNp4z9XPF-3" target="d79rhtWKYqdiNp4z9XPF-6">
          <mxGeometry width="50" height="50" relative="1" as="geometry">
            <mxPoint x="660" y="330" as="sourcePoint" />
            <mxPoint x="710" y="280" as="targetPoint" />
          </mxGeometry>
        </mxCell>
        <mxCell id="d79rhtWKYqdiNp4z9XPF-18" value="" style="shape=cylinder3;whiteSpace=wrap;html=1;boundedLbl=1;backgroundOutline=1;size=15;" vertex="1" parent="7_Rk7xCm0eicdHYlJep_-1">
          <mxGeometry x="290" y="440" width="90" height="85" as="geometry" />
        </mxCell>
        <mxCell id="d79rhtWKYqdiNp4z9XPF-19" value="Modelo Buscones" style="text;html=1;strokeColor=none;fillColor=none;align=center;verticalAlign=middle;whiteSpace=wrap;rounded=0;" vertex="1" parent="7_Rk7xCm0eicdHYlJep_-1">
          <mxGeometry x="315" y="485" width="40" height="20" as="geometry" />
        </mxCell>
        <mxCell id="d79rhtWKYqdiNp4z9XPF-21" value="" style="endArrow=classic;startArrow=classic;html=1;entryX=0.5;entryY=1;entryDx=0;entryDy=0;" edge="1" parent="7_Rk7xCm0eicdHYlJep_-1" source="d79rhtWKYqdiNp4z9XPF-18" target="d79rhtWKYqdiNp4z9XPF-3">
          <mxGeometry width="50" height="50" relative="1" as="geometry">
            <mxPoint x="190" y="460" as="sourcePoint" />
            <mxPoint x="240" y="410" as="targetPoint" />
          </mxGeometry>
        </mxCell>
      </root>
    </mxGraphModel>
  </diagram>
</mxfile>
